<svg data-v-423bf9ae="" xmlns="http://www.w3.org/2000/svg" viewBox="0 0 280.6810867989239 196" class="iconAboveSlogan"><!----><!----><!----><g data-v-423bf9ae="" id="e175e4c8-0eee-44bd-9c34-6258f4c0fec3" fill="black" transform="matrix(6.191950123131256,0,0,6.191950123131256,-6.315785322145416,92.61695700802824)"><path d="M4.20 4.31L1.02 4.31L1.02 14L4.20 14C7.14 14 9.17 12.01 9.17 9.14C9.17 6.30 7.14 4.31 4.20 4.31ZM4.19 12.64L2.55 12.64L2.55 5.67L4.19 5.67C6.22 5.67 7.62 7.07 7.62 9.13C7.62 11.21 6.22 12.64 4.19 12.64ZM16.24 9.00C17.16 8.65 17.77 7.83 17.77 6.76C17.77 5.31 16.66 4.31 15.12 4.31L10.72 4.31L10.72 14L15.55 14C17.08 14 18.17 12.96 18.17 11.45C18.17 10.19 17.40 9.27 16.24 9.00ZM16.27 7.06C16.27 7.90 15.67 8.51 14.83 8.51L12.25 8.51L12.25 5.64L14.83 5.64C15.67 5.64 16.27 6.23 16.27 7.06ZM15.18 12.67L12.25 12.67L12.25 9.73L15.18 9.73C16.00 9.73 16.62 10.35 16.62 11.20C16.62 12.05 16.00 12.67 15.18 12.67ZM26.42 14L28.07 14L24.30 4.31L22.46 4.31L18.70 14L20.34 14L21.11 11.91L25.65 11.91ZM21.57 10.65L23.38 5.80L25.19 10.65ZM35.53 4.31L35.53 11.98L31.15 4.31L29.19 4.31L29.19 14L30.72 14L30.72 6.33L35.11 14L37.06 14L37.06 4.31ZM46.35 14L42.22 9.04L46.35 4.31L44.59 4.31L40.64 8.88L40.64 4.31L39.12 4.31L39.12 14L40.64 14L40.64 9.24L44.58 14Z"></path></g><!----><g data-v-423bf9ae="" id="1a5d07cf-dee4-4e5c-9fa5-c5e38fdc5869" transform="matrix(1.0868111504448785,0,0,1.0868111504448785,85.74473429518693,-0.23894260335429607)" stroke="none" fill="black"><g clip-rule="evenodd"><path d="M12.983 10.59l17.018 88.223-5.872-59.049 29.021-1.892-.054-9.883L64.549 1 53.622 18.977z"></path><path d="M59.389 54.548l5.16-53.541-8.74 39.716-19.612 1.045 1.57 20.462-7.766 36.583 12.057-39.899z"></path><path d="M62.8 67.182l.549-10.453-15.979 3.755-.032 11.797-17.337 26.532 21.68-27.616zM65.711 62.394l14.841-4.731 1.509-12.532-15.899 2.095zM72.07 44.502l10.988-1.417 1.581-10.278-8.079-.373L64.549 1l8.43 30.967z"></path><path d="M87.413 31.294l1.256-9.506-9.544-2.694L64.549 1l14.483 22.437-.422 7z"></path></g></g><!----><g data-v-423bf9ae="" id="006ed41b-a26a-4fb3-a63e-7c4ce1b54537" fill="black" transform="matrix(0.41333360991719714,0,0,0.41333360991719714,36.04965896205681,221.0661935857792)"><path d="M0.52 3.64L0.52 3.64L0.53 3.08L3.67 3.08L3.67 3.64L3.39 3.64L3.39 3.64Q2.94 3.64 2.83 3.66L2.83 3.66L2.83 3.66Q2.66 3.71 2.66 3.82L2.66 3.82L2.66 3.82Q2.66 3.89 2.91 4.31L2.91 4.31L4.92 7.46L7.36 3.99L7.36 3.99Q7.44 3.83 7.45 3.82L7.45 3.82L7.45 3.82Q7.45 3.64 6.54 3.64L6.54 3.64L6.32 3.64L6.30 3.08L8.85 3.08L8.85 3.64L8.78 3.64L8.78 3.64Q8.43 3.64 8.29 3.72L8.29 3.72L8.29 3.72Q8.13 3.80 7.84 4.22L7.84 4.22L5.11 8.17L5.11 11.22L5.11 11.22Q5.11 11.66 5.22 11.77L5.22 11.77L5.22 11.77Q5.32 11.87 5.93 11.87L5.93 11.87L6.57 11.87L6.55 12.41L2.62 12.41L2.63 11.87L3.19 11.87L3.19 11.87Q3.73 11.87 3.85 11.79L3.85 11.79L3.85 11.79Q3.98 11.70 3.98 11.25L3.98 11.25L3.98 8.06L1.68 4.49L1.68 4.49Q1.26 3.84 1.13 3.73L1.13 3.73L1.13 3.73Q1.03 3.64 0.52 3.64ZM16.97 7.83L16.97 7.83L16.97 7.83Q16.97 6.62 17.37 5.68L17.37 5.68L17.37 5.68Q17.79 4.72 18.48 4.12L18.48 4.12L18.48 4.12Q19.17 3.51 20.03 3.19L20.03 3.19L20.03 3.19Q20.87 2.88 21.82 2.88L21.82 2.88L21.82 2.88Q23.08 2.88 24.13 3.40L24.13 3.40L24.13 3.40Q25.21 3.93 25.92 5.07L25.92 5.07L25.92 5.07Q26.62 6.17 26.63 7.75L26.63 7.75L26.63 7.75Q26.63 8.70 26.32 9.54L26.32 9.54L26.32 9.54Q26.01 10.38 25.41 11.10L25.41 11.10L25.41 11.10Q24.80 11.81 23.86 12.22L23.86 12.22L23.86 12.22Q22.90 12.63 21.71 12.64L21.71 12.64L21.71 12.64Q20.58 12.64 19.64 12.23L19.64 12.23L19.64 12.23Q18.70 11.83 18.14 11.14L18.14 11.14L18.14 11.14Q17.57 10.45 17.27 9.60L17.27 9.60L17.27 9.60Q16.97 8.72 16.97 7.83ZM18.22 7.38L18.22 7.38L18.22 7.38Q18.22 8.52 18.66 9.60L18.66 9.60L18.66 9.60Q19.06 10.64 19.99 11.33L19.99 11.33L19.99 11.33Q20.90 12.03 22.09 12.04L22.09 12.04L22.09 12.04Q23.46 12.04 24.40 11.01L24.40 11.01L24.40 11.01Q25.35 9.97 25.35 8.10L25.35 8.10L25.35 8.10Q25.35 5.99 24.19 4.72L24.19 4.72L24.19 4.72Q23.04 3.46 21.53 3.45L21.53 3.45L21.53 3.45Q21.01 3.45 20.46 3.65L20.46 3.65L20.46 3.65Q19.92 3.85 19.41 4.25L19.41 4.25L19.41 4.25Q18.87 4.68 18.55 5.48L18.55 5.48L18.55 5.48Q18.22 6.27 18.22 7.38ZM35.12 3.64L34.74 3.64L34.74 3.08L38.10 3.08L38.12 3.64L37.58 3.64L37.58 3.64Q37.15 3.64 37.00 3.73L37.00 3.73L37.00 3.73Q36.83 3.83 36.83 4.16L36.83 4.16L36.83 9.33L36.83 9.33Q36.83 9.63 36.86 9.78L36.86 9.78L36.86 9.78Q36.90 10.01 37.06 10.41L37.06 10.41L37.06 10.41Q37.24 10.80 37.53 11.09L37.53 11.09L37.53 11.09Q37.84 11.40 38.40 11.63L38.40 11.63L38.40 11.63Q38.97 11.85 39.75 11.85L39.75 11.85L39.75 11.85Q40.61 11.85 41.15 11.67L41.15 11.67L41.15 11.67Q41.71 11.48 42.02 11.22L42.02 11.22L42.02 11.22Q42.33 10.96 42.47 10.49L42.47 10.49L42.47 10.49Q42.64 9.95 42.65 9.66L42.65 9.66L42.65 9.66Q42.68 9.18 42.68 8.67L42.68 8.67L42.68 4.14L42.68 4.14Q42.68 3.81 42.54 3.72L42.54 3.72L42.54 3.72Q42.39 3.64 41.91 3.64L41.91 3.64L41.42 3.64L41.45 3.08L44.08 3.08L44.08 3.64L43.89 3.64L43.89 3.64Q43.57 3.64 43.45 3.75L43.45 3.75L43.45 3.75Q43.34 3.86 43.34 4.25L43.34 4.25L43.34 9.22L43.34 9.22Q43.34 12.67 39.75 12.67L39.75 12.67L39.75 12.67Q37.58 12.67 36.63 11.76L36.63 11.76L36.63 11.76Q35.70 10.86 35.70 9.41L35.70 9.41L35.70 4.14L35.70 4.14Q35.70 3.81 35.59 3.72L35.59 3.72L35.59 3.72Q35.49 3.64 35.12 3.64L35.12 3.64ZM52.15 3.64L51.76 3.64L51.78 3.08L55.00 3.08L55.00 3.08Q56.13 3.08 56.73 3.21L56.73 3.21L56.73 3.21Q57.37 3.37 57.84 3.75L57.84 3.75L57.84 3.75Q58.84 4.57 58.84 5.71L58.84 5.71L58.84 5.71Q58.84 6.43 58.37 7.04L58.37 7.04L58.37 7.04Q57.88 7.66 56.85 7.92L56.85 7.92L59.53 11.49L59.53 11.49Q59.84 11.87 60.14 11.87L60.14 11.87L60.74 11.87L60.76 12.41L58.73 12.41L55.74 8.10L55.57 8.10L55.57 8.10Q55.53 8.10 55.47 8.11L55.47 8.11L55.47 8.11Q55.42 8.11 55.41 8.11L55.41 8.11L55.41 8.11Q54.52 8.11 54.13 8.03L54.13 8.03L54.13 11.46L54.13 11.46Q54.13 11.76 54.27 11.81L54.27 11.81L54.27 11.81Q54.39 11.87 55.10 11.87L55.10 11.87L55.81 11.87L55.78 12.41L52.06 12.41L52.06 11.87L52.38 11.87L52.38 11.87Q52.84 11.87 52.91 11.81L52.91 11.81L52.91 11.81Q52.99 11.74 52.99 11.46L52.99 11.46L52.99 4.14L52.99 4.14Q52.99 3.82 52.80 3.73L52.80 3.73L52.80 3.73Q52.58 3.64 52.15 3.64L52.15 3.64ZM54.13 4.28L54.13 7.57L54.13 7.57Q54.31 7.70 55.02 7.71L55.02 7.71L55.02 7.71Q56.29 7.71 56.88 7.27L56.88 7.27L56.88 7.27Q57.46 6.84 57.46 5.92L57.46 5.92L57.46 5.92Q57.46 4.92 56.69 4.27L56.69 4.27L56.69 4.27Q55.93 3.64 54.55 3.64L54.55 3.64L54.55 3.64Q54.30 3.64 54.22 3.75L54.22 3.75L54.22 3.75Q54.13 3.84 54.13 4.28L54.13 4.28ZM78.10 3.64L78.09 3.08L85.27 3.08L85.27 3.08Q85.29 4.14 85.34 5.28L85.34 5.28L84.79 5.30L84.79 5.30Q84.78 4.66 84.72 4.25L84.72 4.25L84.72 4.25Q84.68 3.89 84.63 3.80L84.63 3.80L84.63 3.80Q84.57 3.71 84.46 3.69L84.46 3.69L84.46 3.69Q84.36 3.68 83.77 3.68L83.77 3.68L81.40 3.68L81.40 3.68Q80.85 3.68 80.71 3.77L80.71 3.77L80.71 3.77Q80.58 3.86 80.58 4.33L80.58 4.33L80.58 6.28L80.58 6.28Q80.58 6.69 80.64 6.76L80.64 6.76L80.64 6.76Q80.71 6.84 81.04 6.84L81.04 6.84L83.16 6.84L83.16 6.84Q83.52 6.84 83.60 6.74L83.60 6.74L83.60 6.74Q83.69 6.64 83.69 6.17L83.69 6.17L83.69 5.63L84.21 5.63L84.21 8.97L83.69 8.97L83.69 8.26L83.69 8.26Q83.69 7.68 83.60 7.57L83.60 7.57L83.60 7.57Q83.52 7.46 83.19 7.46L83.19 7.46L81.09 7.46L81.09 7.46Q80.75 7.46 80.67 7.54L80.67 7.54L80.67 7.54Q80.58 7.63 80.58 7.89L80.58 7.89L80.58 11.20L80.58 11.20Q80.58 11.60 80.65 11.73L80.65 11.73L80.65 11.73Q80.73 11.87 81.00 11.87L81.00 11.87L81.94 11.87L81.94 12.41L78.34 12.41L78.34 11.87L78.75 11.87L78.75 11.87Q79.26 11.87 79.35 11.79L79.35 11.79L79.35 11.79Q79.45 11.70 79.45 11.33L79.45 11.33L79.45 4.24L79.45 4.24Q79.45 3.79 79.28 3.71L79.28 3.71L79.28 3.71Q79.14 3.64 78.10 3.64L78.10 3.64ZM93.40 12.41L93.39 11.87L93.56 11.87L93.56 11.87Q93.95 11.87 94.08 11.73L94.08 11.73L94.08 11.73Q94.20 11.57 94.53 10.83L94.53 10.83L95.44 8.82L96.02 7.53L96.02 7.53Q96.28 6.97 96.33 6.86L96.33 6.86L96.33 6.86Q96.39 6.70 96.44 6.60L96.44 6.60L96.44 6.60Q96.50 6.51 96.51 6.45L96.51 6.45L96.61 6.21L98.03 2.74L98.33 2.74L98.33 2.74Q99.18 4.98 101.37 10.25L101.37 10.25L101.37 10.25Q101.82 11.34 102.01 11.64L102.01 11.64L102.01 11.64Q102.15 11.87 102.59 11.87L102.59 11.87L102.80 11.87L102.79 12.41L99.59 12.41L99.61 11.87L100.02 11.87L100.02 11.87Q100.64 11.87 100.64 11.70L100.64 11.70L100.64 11.70Q100.64 11.63 100.50 11.27L100.50 11.27L99.46 8.72L96.22 8.72L95.11 11.18L95.11 11.18Q94.97 11.50 94.97 11.63L94.97 11.63L94.97 11.63Q94.97 11.79 95.07 11.83L95.07 11.83L95.07 11.83Q95.16 11.87 95.55 11.87L95.55 11.87L96.12 11.87L96.12 12.41L93.40 12.41ZM97.90 4.79L96.48 8.10L99.22 8.10L97.90 4.79ZM111.02 3.64L110.53 3.64L110.53 3.08L114.04 3.08L114.03 3.64L113.29 3.64L113.29 3.64Q112.96 3.64 112.96 3.82L112.96 3.82L112.96 3.82Q112.96 3.98 113.15 4.48L113.15 4.48L115.75 10.94L118.69 4.18L118.69 4.18Q118.76 3.97 118.77 3.92L118.77 3.92L118.77 3.92Q118.77 3.79 118.67 3.74L118.67 3.74L118.67 3.74Q118.57 3.68 118.43 3.65L118.43 3.65L118.43 3.65Q118.34 3.64 118.08 3.64L118.08 3.64L117.63 3.64L117.61 3.08L120.44 3.08L120.42 3.64L120.01 3.64L120.01 3.64Q119.69 3.64 119.53 3.83L119.53 3.83L119.53 3.83Q119.45 3.93 118.99 4.94L118.99 4.94L118.99 4.94Q118.77 5.46 118.71 5.57L118.71 5.57L115.58 12.63L115.34 12.63L112.09 4.73L112.09 4.73Q111.77 3.93 111.62 3.79L111.62 3.79L111.62 3.79Q111.47 3.63 111.02 3.64L111.02 3.64ZM128.56 7.83L128.56 7.83L128.56 7.83Q128.56 6.62 128.97 5.68L128.97 5.68L128.97 5.68Q129.38 4.72 130.07 4.12L130.07 4.12L130.07 4.12Q130.76 3.51 131.63 3.19L131.63 3.19L131.63 3.19Q132.47 2.88 133.42 2.88L133.42 2.88L133.42 2.88Q134.67 2.88 135.73 3.40L135.73 3.40L135.73 3.40Q136.81 3.93 137.52 5.07L137.52 5.07L137.52 5.07Q138.22 6.17 138.22 7.75L138.22 7.75L138.22 7.75Q138.22 8.70 137.92 9.54L137.92 9.54L137.92 9.54Q137.61 10.38 137.00 11.10L137.00 11.10L137.00 11.10Q136.40 11.81 135.46 12.22L135.46 12.22L135.46 12.22Q134.50 12.63 133.31 12.64L133.31 12.64L133.31 12.64Q132.17 12.64 131.24 12.23L131.24 12.23L131.24 12.23Q130.30 11.83 129.74 11.14L129.74 11.14L129.74 11.14Q129.17 10.45 128.87 9.60L128.87 9.60L128.87 9.60Q128.56 8.72 128.56 7.83ZM129.82 7.38L129.82 7.38L129.82 7.38Q129.82 8.52 130.25 9.60L130.25 9.60L130.25 9.60Q130.66 10.64 131.58 11.33L131.58 11.33L131.58 11.33Q132.49 12.03 133.68 12.04L133.68 12.04L133.68 12.04Q135.06 12.04 135.99 11.01L135.99 11.01L135.99 11.01Q136.94 9.97 136.94 8.10L136.94 8.10L136.94 8.10Q136.94 5.99 135.78 4.72L135.78 4.72L135.78 4.72Q134.63 3.46 133.12 3.45L133.12 3.45L133.12 3.45Q132.60 3.45 132.06 3.65L132.06 3.65L132.06 3.65Q131.52 3.85 131.01 4.25L131.01 4.25L131.01 4.25Q130.46 4.68 130.14 5.48L130.14 5.48L130.14 5.48Q129.82 6.27 129.82 7.38ZM146.72 3.64L146.34 3.64L146.34 3.08L149.70 3.08L149.71 3.64L149.18 3.64L149.18 3.64Q148.75 3.64 148.59 3.73L148.59 3.73L148.59 3.73Q148.42 3.83 148.42 4.16L148.42 4.16L148.42 9.33L148.42 9.33Q148.42 9.63 148.46 9.78L148.46 9.78L148.46 9.78Q148.50 10.01 148.66 10.41L148.66 10.41L148.66 10.41Q148.83 10.80 149.13 11.09L149.13 11.09L149.13 11.09Q149.43 11.40 149.99 11.63L149.99 11.63L149.99 11.63Q150.57 11.85 151.35 11.85L151.35 11.85L151.35 11.85Q152.20 11.85 152.75 11.67L152.75 11.67L152.75 11.67Q153.31 11.48 153.62 11.22L153.62 11.22L153.62 11.22Q153.92 10.96 154.07 10.49L154.07 10.49L154.07 10.49Q154.24 9.95 154.25 9.66L154.25 9.66L154.25 9.66Q154.27 9.18 154.28 8.67L154.28 8.67L154.28 4.14L154.28 4.14Q154.28 3.81 154.14 3.72L154.14 3.72L154.14 3.72Q153.99 3.64 153.51 3.64L153.51 3.64L153.02 3.64L153.04 3.08L155.67 3.08L155.67 3.64L155.48 3.64L155.48 3.64Q155.16 3.64 155.05 3.75L155.05 3.75L155.05 3.75Q154.94 3.86 154.94 4.25L154.94 4.25L154.94 9.22L154.94 9.22Q154.94 12.67 151.35 12.67L151.35 12.67L151.35 12.67Q149.18 12.67 148.23 11.76L148.23 11.76L148.23 11.76Q147.29 10.86 147.29 9.41L147.29 9.41L147.29 4.14L147.29 4.14Q147.29 3.81 147.19 3.72L147.19 3.72L147.19 3.72Q147.08 3.64 146.72 3.64L146.72 3.64ZM163.75 3.64L163.36 3.64L163.37 3.08L166.59 3.08L166.59 3.08Q167.73 3.08 168.33 3.21L168.33 3.21L168.33 3.21Q168.97 3.37 169.44 3.75L169.44 3.75L169.44 3.75Q170.44 4.57 170.44 5.71L170.44 5.71L170.44 5.71Q170.44 6.43 169.97 7.04L169.97 7.04L169.97 7.04Q169.48 7.66 168.44 7.92L168.44 7.92L171.13 11.49L171.13 11.49Q171.44 11.87 171.73 11.87L171.73 11.87L172.33 11.87L172.36 12.41L170.33 12.41L167.34 8.10L167.17 8.10L167.17 8.10Q167.13 8.10 167.07 8.11L167.07 8.11L167.07 8.11Q167.02 8.11 167.00 8.11L167.00 8.11L167.00 8.11Q166.12 8.11 165.72 8.03L165.72 8.03L165.72 11.46L165.72 11.46Q165.72 11.76 165.87 11.81L165.87 11.81L165.87 11.81Q165.99 11.87 166.69 11.87L166.69 11.87L167.41 11.87L167.38 12.41L163.65 12.41L163.65 11.87L163.97 11.87L163.97 11.87Q164.44 11.87 164.51 11.81L164.51 11.81L164.51 11.81Q164.59 11.74 164.59 11.46L164.59 11.46L164.59 4.14L164.59 4.14Q164.59 3.82 164.40 3.73L164.40 3.73L164.40 3.73Q164.17 3.64 163.75 3.64L163.75 3.64ZM165.72 4.28L165.72 7.57L165.72 7.57Q165.91 7.70 166.62 7.71L166.62 7.71L166.62 7.71Q167.89 7.71 168.47 7.27L168.47 7.27L168.47 7.27Q169.06 6.84 169.06 5.92L169.06 5.92L169.06 5.92Q169.06 4.92 168.29 4.27L168.29 4.27L168.29 4.27Q167.53 3.64 166.15 3.64L166.15 3.64L166.15 3.64Q165.89 3.64 165.81 3.75L165.81 3.75L165.81 3.75Q165.73 3.84 165.72 4.28L165.72 4.28ZM180.70 3.64L180.11 3.64L180.13 3.08L183.64 3.08L183.64 3.64L183.41 3.64L183.41 3.64Q182.86 3.64 182.69 3.73L182.69 3.73L182.69 3.73Q182.55 3.81 182.55 4.28L182.55 4.28L182.55 11.22L182.55 11.22Q182.55 11.68 182.66 11.77L182.66 11.77L182.66 11.77Q182.77 11.87 183.31 11.87L183.31 11.87L183.85 11.87L183.87 12.41L180.28 12.41L180.27 11.87L180.63 11.87L180.63 11.87Q181.19 11.87 181.31 11.77L181.31 11.77L181.31 11.77Q181.42 11.67 181.42 11.25L181.42 11.25L181.42 4.14L181.42 4.14Q181.42 3.77 181.32 3.71L181.32 3.71L181.32 3.71Q181.21 3.64 180.70 3.64L180.70 3.64ZM191.88 5.35L191.39 5.33L191.39 5.33Q191.51 4.17 191.59 3.08L191.59 3.08L199.67 3.08L199.67 3.08Q199.59 4.13 199.56 4.53L199.56 4.53L199.56 4.53Q199.52 5.26 199.50 5.32L199.50 5.32L199.00 5.30L199.00 5.30Q199.08 4.34 199.08 4.16L199.08 4.16L199.08 4.16Q199.08 3.88 198.94 3.79L198.94 3.79L198.94 3.79Q198.77 3.69 198.37 3.69L198.37 3.69L196.76 3.69L196.76 3.69Q196.25 3.69 196.13 3.79L196.13 3.79L196.13 3.79Q196.03 3.87 196.03 4.36L196.03 4.36L196.03 11.22L196.03 11.22Q196.03 11.66 196.17 11.76L196.17 11.76L196.17 11.76Q196.33 11.87 196.84 11.87L196.84 11.87L197.40 11.87L197.42 12.41L193.72 12.40L193.72 11.87L193.94 11.87L193.94 11.87Q194.61 11.87 194.76 11.79L194.76 11.79L194.76 11.79Q194.90 11.70 194.90 11.28L194.90 11.28L194.90 4.48L194.90 4.48Q194.90 3.92 194.80 3.80L194.80 3.80L194.80 3.80Q194.70 3.69 194.28 3.69L194.28 3.69L192.81 3.69L192.81 3.69Q192.62 3.69 192.55 3.71L192.55 3.71L192.55 3.71Q192.49 3.72 192.38 3.72L192.38 3.72L192.38 3.72Q192.35 3.72 192.23 3.79L192.23 3.79L192.23 3.79Q192.15 3.84 192.12 3.86L192.12 3.86L192.12 3.86Q192.10 3.88 192.06 3.99L192.06 3.99L192.06 3.99Q192.03 4.05 192.00 4.14L192.00 4.14L192.00 4.14Q191.97 4.21 191.95 4.36L191.95 4.36L191.95 4.36Q191.93 4.59 191.93 4.61L191.93 4.61L191.93 4.61Q191.93 4.80 191.91 4.95L191.91 4.95L191.91 4.95Q191.91 5.02 191.91 5.15L191.91 5.15L191.91 5.15Q191.90 5.29 191.88 5.35L191.88 5.35ZM207.42 3.64L207.41 3.08L214.62 3.08L214.62 3.08Q214.63 4.14 214.69 5.28L214.69 5.28L214.14 5.30L214.14 5.30Q214.13 4.66 214.07 4.25L214.07 4.25L214.07 4.25Q214.03 3.89 213.98 3.80L213.98 3.80L213.98 3.80Q213.92 3.71 213.81 3.69L213.81 3.69L213.81 3.69Q213.71 3.68 213.12 3.68L213.12 3.68L210.75 3.68L210.75 3.68Q210.20 3.68 210.05 3.77L210.05 3.77L210.05 3.77Q209.93 3.86 209.93 4.33L209.93 4.33L209.93 6.28L209.93 6.28Q209.93 6.69 209.99 6.76L209.99 6.76L209.99 6.76Q210.05 6.84 210.40 6.84L210.40 6.84L212.51 6.84L212.51 6.84Q212.87 6.84 212.95 6.73L212.95 6.73L212.95 6.73Q213.04 6.63 213.04 6.14L213.04 6.14L213.04 5.61L213.55 5.63L213.55 8.97L213.04 8.97L213.04 8.24L213.04 8.24Q213.04 7.66 212.97 7.57L212.97 7.57L212.97 7.57Q212.88 7.46 212.54 7.46L212.54 7.46L210.44 7.46L210.44 7.46Q210.10 7.46 210.02 7.54L210.02 7.54L210.02 7.54Q209.93 7.63 209.93 7.89L209.93 7.89L209.93 11.20L209.93 11.20Q209.93 11.57 210.02 11.67L210.02 11.67L210.02 11.67Q210.10 11.77 210.38 11.77L210.38 11.77L210.38 11.77Q213.29 11.75 213.82 11.69L213.82 11.69L213.82 11.69Q214.34 11.63 214.42 11.38L214.42 11.38L214.43 11.36L214.44 11.35L214.66 10.17L215.14 10.25L214.79 12.41L207.69 12.41L207.69 11.87L208.06 11.87L208.06 11.87Q208.62 11.87 208.70 11.80L208.70 11.80L208.70 11.80Q208.80 11.72 208.80 11.33L208.80 11.33L208.80 4.24L208.80 4.24Q208.80 3.82 208.65 3.73L208.65 3.73L208.65 3.73Q208.48 3.64 207.82 3.64L207.82 3.64L207.42 3.64ZM232.63 3.64L232.59 3.08L236.37 3.08L236.37 3.08Q237.69 3.08 238.55 3.19L238.55 3.19L238.55 3.19Q239.37 3.29 240.06 3.69L240.06 3.69L240.06 3.69Q241.01 4.27 241.52 5.24L241.52 5.24L241.52 5.24Q242.01 6.21 242.01 7.39L242.01 7.39L242.01 7.39Q242.01 8.05 241.87 8.65L241.87 8.65L241.87 8.65Q241.71 9.29 241.32 9.98L241.32 9.98L241.32 9.98Q240.89 10.73 240.33 11.21L240.33 11.21L240.33 11.21Q239.70 11.76 238.73 12.08L238.73 12.08L238.73 12.08Q237.73 12.41 236.46 12.41L236.46 12.41L232.84 12.41L232.83 11.87L233.20 11.87L233.20 11.87Q233.72 11.87 233.82 11.79L233.82 11.79L233.82 11.79Q233.93 11.70 233.93 11.25L233.93 11.25L233.93 4.14L233.93 4.14Q233.93 3.77 233.84 3.71L233.84 3.71L233.84 3.71Q233.73 3.64 233.21 3.64L233.21 3.64L232.63 3.64ZM235.07 4.39L235.07 11.22L235.07 11.22Q235.07 11.67 235.23 11.77L235.23 11.77L235.23 11.77Q235.39 11.87 236.26 11.87L236.26 11.87L236.26 11.87Q237.31 11.87 238.10 11.61L238.10 11.61L238.10 11.61Q238.96 11.35 239.39 10.99L239.39 10.99L239.39 10.99Q239.89 10.58 240.19 10.05L240.19 10.05L240.19 10.05Q240.50 9.52 240.63 8.96L240.63 8.96L240.63 8.96Q240.75 8.41 240.75 7.82L240.75 7.82L240.75 7.82Q240.75 7.03 240.48 6.34L240.48 6.34L240.48 6.34Q240.21 5.65 239.69 5.05L239.69 5.05L239.69 5.05Q239.16 4.46 238.25 4.09L238.25 4.09L238.25 4.09Q237.32 3.73 236.16 3.73L236.16 3.73L235.64 3.73L235.64 3.73Q235.28 3.73 235.18 3.85L235.18 3.85L235.18 3.85Q235.07 3.99 235.07 4.39L235.07 4.39ZM250.00 3.64L249.98 3.08L257.20 3.08L257.20 3.08Q257.21 4.14 257.26 5.28L257.26 5.28L256.72 5.30L256.72 5.30Q256.70 4.66 256.65 4.25L256.65 4.25L256.65 4.25Q256.61 3.89 256.55 3.80L256.55 3.80L256.55 3.80Q256.50 3.71 256.38 3.69L256.38 3.69L256.38 3.69Q256.29 3.68 255.70 3.68L255.70 3.68L253.32 3.68L253.32 3.68Q252.77 3.68 252.63 3.77L252.63 3.77L252.63 3.77Q252.51 3.86 252.51 4.33L252.51 4.33L252.51 6.28L252.51 6.28Q252.51 6.69 252.56 6.76L252.56 6.76L252.56 6.76Q252.63 6.84 252.97 6.84L252.97 6.84L255.08 6.84L255.08 6.84Q255.45 6.84 255.53 6.73L255.53 6.73L255.53 6.73Q255.61 6.63 255.62 6.14L255.62 6.14L255.62 5.61L256.13 5.63L256.13 8.97L255.62 8.97L255.62 8.24L255.62 8.24Q255.62 7.66 255.54 7.57L255.54 7.57L255.54 7.57Q255.46 7.46 255.11 7.46L255.11 7.46L253.01 7.46L253.01 7.46Q252.68 7.46 252.59 7.54L252.59 7.54L252.59 7.54Q252.51 7.63 252.51 7.89L252.51 7.89L252.51 11.20L252.51 11.20Q252.51 11.57 252.59 11.67L252.59 11.67L252.59 11.67Q252.68 11.77 252.95 11.77L252.95 11.77L252.95 11.77Q255.87 11.75 256.40 11.69L256.40 11.69L256.40 11.69Q256.92 11.63 257.00 11.38L257.00 11.38L257.00 11.36L257.01 11.35L257.24 10.17L257.71 10.25L257.37 12.41L250.26 12.41L250.26 11.87L250.63 11.87L250.63 11.87Q251.19 11.87 251.28 11.80L251.28 11.80L251.28 11.80Q251.37 11.72 251.37 11.33L251.37 11.33L251.37 4.24L251.37 4.24Q251.37 3.82 251.22 3.73L251.22 3.73L251.22 3.73Q251.05 3.64 250.39 3.64L250.39 3.64L250.00 3.64ZM265.97 8.02L265.97 8.02L265.97 8.02Q265.97 6.86 266.44 5.83L266.44 5.83L266.44 5.83Q266.91 4.85 267.66 4.27L267.66 4.27L267.66 4.27Q268.41 3.69 269.30 3.37L269.30 3.37L269.30 3.37Q270.20 3.05 271.04 3.05L271.04 3.05L271.04 3.05Q271.91 3.05 272.58 3.16L272.58 3.16L272.58 3.16Q273.21 3.26 273.50 3.37L273.50 3.37L273.50 3.37Q273.81 3.48 273.84 3.48L273.84 3.48L273.84 3.48Q274.01 3.48 274.03 3.41L274.03 3.41L274.03 3.41Q274.06 3.33 274.06 3.09L274.06 3.09L274.06 2.97L274.59 2.97L274.59 2.97Q274.63 4.30 274.76 5.64L274.76 5.64L274.26 5.65L274.26 5.65Q274.23 5.40 274.22 5.26L274.22 5.26L274.22 5.26Q274.22 5.20 274.21 5.13L274.21 5.13L274.21 5.13Q274.20 5.07 274.20 5.02L274.20 5.02L274.20 5.02Q274.19 4.98 274.19 4.95L274.19 4.95L274.19 4.95Q274.16 4.84 274.16 4.74L274.16 4.74L274.16 4.74Q274.16 4.68 274.12 4.59L274.12 4.59L274.12 4.59Q274.12 4.57 274.09 4.55L274.09 4.55L274.09 4.55Q274.06 4.52 274.06 4.50L274.06 4.50L274.06 4.50Q274.03 4.44 273.96 4.41L273.96 4.41L273.96 4.41Q273.92 4.38 273.90 4.37L273.90 4.37L273.90 4.37Q273.87 4.36 273.84 4.35L273.84 4.35L273.84 4.35Q273.83 4.35 273.80 4.33L273.80 4.33L273.80 4.33Q273.78 4.31 273.74 4.29L273.74 4.29L273.74 4.29Q273.70 4.27 273.66 4.25L273.66 4.25L273.66 4.25Q273.43 4.16 273.40 4.14L273.40 4.14L273.40 4.14Q273.05 3.96 272.41 3.83L272.41 3.83L272.41 3.83Q271.74 3.71 271.08 3.71L271.08 3.71L271.08 3.71Q269.36 3.71 268.26 4.84L268.26 4.84L268.26 4.84Q267.16 5.99 267.16 7.62L267.16 7.62L267.16 7.62Q267.16 9.35 268.38 10.69L268.38 10.69L268.38 10.69Q269.58 12.02 271.40 12.02L271.40 12.02L271.40 12.02Q272.41 12.02 273.35 11.49L273.35 11.49L273.35 11.49Q274.30 10.94 274.33 10.58L274.33 10.58L274.37 9.41L274.86 9.41L274.78 11.45L274.78 11.45Q274.71 11.49 274.58 11.57L274.58 11.57L274.58 11.57Q274.52 11.60 274.06 11.85L274.06 11.85L274.06 11.85Q273.68 12.05 273.24 12.23L273.24 12.23L273.24 12.23Q272.88 12.39 272.23 12.51L272.23 12.51L272.23 12.51Q271.62 12.63 271.05 12.64L271.05 12.64L271.05 12.64Q268.67 12.64 267.31 11.39L267.31 11.39L267.31 11.39Q265.97 10.14 265.97 8.02ZM282.91 3.64L282.89 3.08L290.10 3.08L290.10 3.08Q290.12 4.14 290.17 5.28L290.17 5.28L289.63 5.30L289.63 5.30Q289.61 4.66 289.56 4.25L289.56 4.25L289.56 4.25Q289.52 3.89 289.46 3.80L289.46 3.80L289.46 3.80Q289.41 3.71 289.29 3.69L289.29 3.69L289.29 3.69Q289.19 3.68 288.61 3.68L288.61 3.68L286.23 3.68L286.23 3.68Q285.68 3.68 285.54 3.77L285.54 3.77L285.54 3.77Q285.41 3.86 285.41 4.33L285.41 4.33L285.41 6.28L285.41 6.28Q285.41 6.69 285.47 6.76L285.47 6.76L285.47 6.76Q285.54 6.84 285.88 6.84L285.88 6.84L287.99 6.84L287.99 6.84Q288.35 6.84 288.44 6.73L288.44 6.73L288.44 6.73Q288.52 6.63 288.52 6.14L288.52 6.14L288.52 5.61L289.04 5.63L289.04 8.97L288.52 8.97L288.52 8.24L288.52 8.24Q288.52 7.66 288.45 7.57L288.45 7.57L288.45 7.57Q288.37 7.46 288.02 7.46L288.02 7.46L285.92 7.46L285.92 7.46Q285.58 7.46 285.50 7.54L285.50 7.54L285.50 7.54Q285.41 7.63 285.41 7.89L285.41 7.89L285.41 11.20L285.41 11.20Q285.41 11.57 285.50 11.67L285.50 11.67L285.50 11.67Q285.58 11.77 285.86 11.77L285.86 11.77L285.86 11.77Q288.78 11.75 289.30 11.69L289.30 11.69L289.30 11.69Q289.82 11.63 289.91 11.38L289.91 11.38L289.91 11.36L289.92 11.35L290.14 10.17L290.62 10.25L290.27 12.41L283.17 12.41L283.17 11.87L283.54 11.87L283.54 11.87Q284.10 11.87 284.18 11.80L284.18 11.80L284.18 11.80Q284.28 11.72 284.28 11.33L284.28 11.33L284.28 4.24L284.28 4.24Q284.28 3.82 284.13 3.73L284.13 3.73L284.13 3.73Q283.96 3.64 283.30 3.64L283.30 3.64L282.91 3.64ZM298.51 3.64L298.50 3.08L300.67 3.08L306.41 10.48L306.41 4.14L306.41 4.14Q306.41 3.81 306.25 3.72L306.25 3.72L306.25 3.72Q306.10 3.64 305.64 3.64L305.64 3.64L305.15 3.64L305.18 3.08L308.16 3.08L308.16 3.64L307.84 3.64L307.84 3.64Q307.37 3.64 307.22 3.75L307.22 3.75L307.22 3.75Q307.07 3.86 307.07 4.25L307.07 4.25L307.07 12.32L307.07 12.47L307.07 12.47Q307.07 12.52 307.06 12.57L307.06 12.57L307.06 12.57Q307.04 12.61 307.01 12.64L307.01 12.64L307.01 12.64Q307.00 12.65 306.94 12.65L306.94 12.65L306.75 12.65L306.69 12.65L306.66 12.65L306.63 12.64L306.63 12.64Q306.61 12.64 306.59 12.63L306.59 12.63L306.59 12.63Q306.58 12.61 306.58 12.60L306.58 12.60L306.58 12.60Q306.58 12.58 306.56 12.57L306.56 12.57L306.56 12.57Q306.54 12.54 306.51 12.50L306.51 12.50L306.51 12.50Q306.50 12.48 306.48 12.45L306.48 12.45L306.48 12.45Q306.46 12.41 306.44 12.40L306.44 12.40L300.34 4.56L300.41 11.22L300.41 11.22Q300.41 11.67 300.57 11.77L300.57 11.77L300.57 11.77Q300.73 11.87 301.44 11.87L301.44 11.87L301.68 11.87L301.68 12.41L298.74 12.41L298.74 11.87L299.16 11.87L299.16 11.87Q299.54 11.87 299.65 11.76L299.65 11.76L299.65 11.76Q299.74 11.66 299.75 11.25L299.75 11.25L299.75 3.80L299.61 3.64L298.51 3.64ZM316.18 5.35L315.68 5.33L315.68 5.33Q315.80 4.17 315.88 3.08L315.88 3.08L323.96 3.08L323.96 3.08Q323.88 4.13 323.85 4.53L323.85 4.53L323.85 4.53Q323.81 5.26 323.79 5.32L323.79 5.32L323.29 5.30L323.29 5.30Q323.37 4.34 323.37 4.16L323.37 4.16L323.37 4.16Q323.37 3.88 323.23 3.79L323.23 3.79L323.23 3.79Q323.06 3.69 322.66 3.69L322.66 3.69L321.05 3.69L321.05 3.69Q320.54 3.69 320.42 3.79L320.42 3.79L320.42 3.79Q320.33 3.87 320.32 4.36L320.32 4.36L320.32 11.22L320.32 11.22Q320.32 11.66 320.46 11.76L320.46 11.76L320.46 11.76Q320.62 11.87 321.13 11.87L321.13 11.87L321.69 11.87L321.71 12.41L318.01 12.40L318.01 11.87L318.23 11.87L318.23 11.87Q318.90 11.87 319.05 11.79L319.05 11.79L319.05 11.79Q319.19 11.70 319.19 11.28L319.19 11.28L319.19 4.48L319.19 4.48Q319.19 3.92 319.09 3.80L319.09 3.80L319.09 3.80Q318.99 3.69 318.57 3.69L318.57 3.69L317.10 3.69L317.10 3.69Q316.91 3.69 316.85 3.71L316.85 3.71L316.85 3.71Q316.78 3.72 316.67 3.72L316.67 3.72L316.67 3.72Q316.64 3.72 316.52 3.79L316.52 3.79L316.52 3.79Q316.44 3.84 316.42 3.86L316.42 3.86L316.42 3.86Q316.39 3.88 316.35 3.99L316.35 3.99L316.35 3.99Q316.32 4.05 316.29 4.14L316.29 4.14L316.29 4.14Q316.26 4.21 316.24 4.36L316.24 4.36L316.24 4.36Q316.22 4.59 316.22 4.61L316.22 4.61L316.22 4.61Q316.22 4.80 316.20 4.95L316.20 4.95L316.20 4.95Q316.20 5.02 316.20 5.15L316.20 5.15L316.20 5.15Q316.19 5.29 316.18 5.35L316.18 5.35ZM332.04 3.64L331.65 3.64L331.66 3.08L334.88 3.08L334.88 3.08Q336.01 3.08 336.62 3.21L336.62 3.21L336.62 3.21Q337.26 3.37 337.72 3.75L337.72 3.75L337.72 3.75Q338.73 4.57 338.73 5.71L338.73 5.71L338.73 5.71Q338.73 6.43 338.26 7.04L338.26 7.04L338.26 7.04Q337.76 7.66 336.73 7.92L336.73 7.92L339.42 11.49L339.42 11.49Q339.73 11.87 340.02 11.87L340.02 11.87L340.62 11.87L340.65 12.41L338.62 12.41L335.62 8.10L335.45 8.10L335.45 8.10Q335.41 8.10 335.36 8.11L335.36 8.11L335.36 8.11Q335.30 8.11 335.29 8.11L335.29 8.11L335.29 8.11Q334.41 8.11 334.01 8.03L334.01 8.03L334.01 11.46L334.01 11.46Q334.01 11.76 334.15 11.81L334.15 11.81L334.15 11.81Q334.28 11.87 334.98 11.87L334.98 11.87L335.69 11.87L335.67 12.41L331.94 12.41L331.94 11.87L332.26 11.87L332.26 11.87Q332.73 11.87 332.79 11.81L332.79 11.81L332.79 11.81Q332.88 11.74 332.88 11.46L332.88 11.46L332.88 4.14L332.88 4.14Q332.88 3.82 332.68 3.73L332.68 3.73L332.68 3.73Q332.46 3.64 332.04 3.64L332.04 3.64ZM334.01 4.28L334.01 7.57L334.01 7.57Q334.20 7.70 334.91 7.71L334.91 7.71L334.91 7.71Q336.18 7.71 336.76 7.27L336.76 7.27L336.76 7.27Q337.35 6.84 337.35 5.92L337.35 5.92L337.35 5.92Q337.35 4.92 336.57 4.27L336.57 4.27L336.57 4.27Q335.82 3.64 334.43 3.64L334.43 3.64L334.43 3.64Q334.18 3.64 334.10 3.75L334.10 3.75L334.10 3.75Q334.02 3.84 334.01 4.28L334.01 4.28ZM348.41 12.41L348.40 11.87L348.57 11.87L348.57 11.87Q348.96 11.87 349.09 11.73L349.09 11.73L349.09 11.73Q349.21 11.57 349.55 10.83L349.55 10.83L350.46 8.82L351.03 7.53L351.03 7.53Q351.30 6.97 351.34 6.86L351.34 6.86L351.34 6.86Q351.41 6.70 351.46 6.60L351.46 6.60L351.46 6.60Q351.51 6.51 351.52 6.45L351.52 6.45L351.62 6.21L353.05 2.74L353.34 2.74L353.34 2.74Q354.20 4.98 356.38 10.25L356.38 10.25L356.38 10.25Q356.84 11.34 357.03 11.64L357.03 11.64L357.03 11.64Q357.16 11.87 357.60 11.87L357.60 11.87L357.81 11.87L357.80 12.41L354.61 12.41L354.62 11.87L355.04 11.87L355.04 11.87Q355.65 11.87 355.65 11.70L355.65 11.70L355.65 11.70Q355.65 11.63 355.52 11.27L355.52 11.27L354.48 8.72L351.23 8.72L350.12 11.18L350.12 11.18Q349.99 11.50 349.99 11.63L349.99 11.63L349.99 11.63Q349.99 11.79 350.08 11.83L350.08 11.83L350.08 11.83Q350.18 11.87 350.56 11.87L350.56 11.87L351.13 11.87L351.13 12.41L348.41 12.41ZM352.91 4.79L351.50 8.10L354.24 8.10L352.91 4.79ZM366.04 3.64L365.54 3.64L365.56 3.08L369.15 3.08L369.15 3.64L368.51 3.64L368.51 3.64Q368.14 3.64 368.02 3.72L368.02 3.72L368.02 3.72Q367.91 3.80 367.91 4.16L367.91 4.16L367.91 11.22L367.91 11.22Q367.91 11.57 368.00 11.67L368.00 11.67L368.00 11.67Q368.08 11.77 368.38 11.77L368.38 11.77L368.38 11.77Q371.25 11.74 371.90 11.63L371.90 11.63L371.90 11.63Q372.11 11.61 372.20 11.39L372.20 11.39L372.20 11.39Q372.28 11.17 372.48 10.05L372.48 10.05L372.97 10.08L372.50 12.41L365.74 12.41L365.73 11.87L366.12 11.87L366.12 11.87Q366.63 11.87 366.69 11.80L366.69 11.80L366.69 11.80Q366.78 11.72 366.78 11.33L366.78 11.33L366.78 4.09L366.78 4.09Q366.78 3.80 366.63 3.72L366.63 3.72L366.63 3.72Q366.47 3.64 366.04 3.64L366.04 3.64ZM381.29 3.64L380.70 3.64L380.71 3.08L384.23 3.08L384.23 3.64L384.00 3.64L384.00 3.64Q383.45 3.64 383.28 3.73L383.28 3.73L383.28 3.73Q383.14 3.81 383.14 4.28L383.14 4.28L383.14 11.22L383.14 11.22Q383.14 11.68 383.25 11.77L383.25 11.77L383.25 11.77Q383.36 11.87 383.89 11.87L383.89 11.87L384.44 11.87L384.45 12.41L380.87 12.41L380.86 11.87L381.22 11.87L381.22 11.87Q381.78 11.87 381.89 11.77L381.89 11.77L381.89 11.77Q382.01 11.67 382.01 11.25L382.01 11.25L382.01 4.14L382.01 4.14Q382.01 3.77 381.90 3.71L381.90 3.71L381.90 3.71Q381.79 3.64 381.29 3.64L381.29 3.64ZM392.19 12.13L392.19 12.13L392.19 12.13Q392.19 12.08 392.28 11.95L392.28 11.95L392.28 11.95Q392.33 11.87 392.57 11.60L392.57 11.60L392.57 11.60Q392.68 11.48 392.75 11.41L392.75 11.41L392.75 11.41Q392.82 11.33 392.85 11.29L392.85 11.29L399.14 4.18L393.43 4.18L393.43 4.18Q393.16 4.18 393.09 4.31L393.09 4.31L393.09 4.31Q393.03 4.43 392.96 5.09L392.96 5.09L392.96 5.09Q392.96 5.11 392.96 5.13L392.96 5.13L392.96 5.13Q392.95 5.16 392.94 5.21L392.94 5.21L392.94 5.21Q392.94 5.26 392.94 5.30L392.94 5.30L392.94 5.30Q392.91 5.53 392.91 5.58L392.91 5.58L392.35 5.55L392.35 5.55Q392.54 4.02 392.56 3.08L392.56 3.08L400.19 3.08L400.19 3.08Q400.62 3.08 400.62 3.21L400.62 3.21L400.62 3.21Q400.62 3.24 400.57 3.36L400.57 3.36L400.57 3.36Q400.54 3.41 400.46 3.55L400.46 3.55L400.46 3.55Q400.43 3.60 400.31 3.75L400.31 3.75L400.31 3.75Q400.26 3.83 400.20 3.90L400.20 3.90L400.13 3.97L393.76 11.25L399.31 11.25L399.31 11.25Q399.88 11.25 399.94 11.17L399.94 11.17L399.94 11.17Q400.05 11.03 400.20 9.95L400.20 9.95L400.74 9.97L400.74 9.97Q400.74 10.01 400.72 10.11L400.72 10.11L400.72 10.11Q400.70 10.21 400.68 10.40L400.68 10.40L400.68 10.40Q400.66 10.60 400.63 10.79L400.63 10.79L400.63 10.79Q400.50 11.87 400.46 12.41L400.46 12.41L392.50 12.41L392.50 12.41Q392.19 12.41 392.19 12.13ZM408.48 3.64L408.47 3.08L415.68 3.08L415.68 3.08Q415.69 4.14 415.75 5.28L415.75 5.28L415.20 5.30L415.20 5.30Q415.19 4.66 415.13 4.25L415.13 4.25L415.13 4.25Q415.09 3.89 415.04 3.80L415.04 3.80L415.04 3.80Q414.98 3.71 414.87 3.69L414.87 3.69L414.87 3.69Q414.77 3.68 414.18 3.68L414.18 3.68L411.80 3.68L411.80 3.68Q411.26 3.68 411.11 3.77L411.11 3.77L411.11 3.77Q410.99 3.86 410.99 4.33L410.99 4.33L410.99 6.28L410.99 6.28Q410.99 6.69 411.04 6.76L411.04 6.76L411.04 6.76Q411.11 6.84 411.46 6.84L411.46 6.84L413.57 6.84L413.57 6.84Q413.93 6.84 414.01 6.73L414.01 6.73L414.01 6.73Q414.09 6.63 414.10 6.14L414.10 6.14L414.10 5.61L414.61 5.63L414.61 8.97L414.10 8.97L414.10 8.24L414.10 8.24Q414.10 7.66 414.03 7.57L414.03 7.57L414.03 7.57Q413.94 7.46 413.59 7.46L413.59 7.46L411.50 7.46L411.50 7.46Q411.16 7.46 411.08 7.54L411.08 7.54L411.08 7.54Q410.99 7.63 410.99 7.89L410.99 7.89L410.99 11.20L410.99 11.20Q410.99 11.57 411.08 11.67L411.08 11.67L411.08 11.67Q411.16 11.77 411.43 11.77L411.43 11.77L411.43 11.77Q414.35 11.75 414.88 11.69L414.88 11.69L414.88 11.69Q415.40 11.63 415.48 11.38L415.48 11.38L415.49 11.36L415.50 11.35L415.72 10.17L416.20 10.25L415.85 12.41L408.75 12.41L408.75 11.87L409.12 11.87L409.12 11.87Q409.68 11.87 409.76 11.80L409.76 11.80L409.76 11.80Q409.86 11.72 409.86 11.33L409.86 11.33L409.86 4.24L409.86 4.24Q409.86 3.82 409.71 3.73L409.71 3.73L409.71 3.73Q409.53 3.64 408.88 3.64L408.88 3.64L408.48 3.64ZM424.12 3.64L424.07 3.08L427.85 3.08L427.85 3.08Q429.17 3.08 430.04 3.19L430.04 3.19L430.04 3.19Q430.86 3.29 431.55 3.69L431.55 3.69L431.55 3.69Q432.50 4.27 433.01 5.24L433.01 5.24L433.01 5.24Q433.50 6.21 433.50 7.39L433.50 7.39L433.50 7.39Q433.50 8.05 433.36 8.65L433.36 8.65L433.36 8.65Q433.20 9.29 432.81 9.98L432.81 9.98L432.81 9.98Q432.38 10.73 431.82 11.21L431.82 11.21L431.82 11.21Q431.19 11.76 430.22 12.08L430.22 12.08L430.22 12.08Q429.21 12.41 427.94 12.41L427.94 12.41L424.33 12.41L424.31 11.87L424.69 11.87L424.69 11.87Q425.21 11.87 425.31 11.79L425.31 11.79L425.31 11.79Q425.42 11.70 425.42 11.25L425.42 11.25L425.42 4.14L425.42 4.14Q425.42 3.77 425.33 3.71L425.33 3.71L425.33 3.71Q425.22 3.64 424.70 3.64L424.70 3.64L424.12 3.64ZM426.56 4.39L426.56 11.22L426.56 11.22Q426.56 11.67 426.72 11.77L426.72 11.77L426.72 11.77Q426.88 11.87 427.75 11.87L427.75 11.87L427.75 11.87Q428.80 11.87 429.59 11.61L429.59 11.61L429.59 11.61Q430.45 11.35 430.88 10.99L430.88 10.99L430.88 10.99Q431.38 10.58 431.68 10.05L431.68 10.05L431.68 10.05Q431.98 9.52 432.11 8.96L432.11 8.96L432.11 8.96Q432.24 8.41 432.24 7.82L432.24 7.82L432.24 7.82Q432.24 7.03 431.97 6.34L431.97 6.34L431.97 6.34Q431.70 5.65 431.18 5.05L431.18 5.05L431.18 5.05Q430.64 4.46 429.73 4.09L429.73 4.09L429.73 4.09Q428.81 3.73 427.65 3.73L427.65 3.73L427.13 3.73L427.13 3.73Q426.77 3.73 426.67 3.85L426.67 3.85L426.67 3.85Q426.56 3.99 426.56 4.39L426.56 4.39ZM451.44 3.64L451.04 3.64L451.07 3.08L454.17 3.08L454.17 3.08Q455.91 3.08 456.69 3.75L456.69 3.75L456.69 3.75Q457.46 4.42 457.45 5.37L457.45 5.37L457.45 5.37Q457.45 6.08 456.92 6.60L456.92 6.60L456.92 6.60Q456.36 7.14 455.66 7.35L455.66 7.35L455.66 7.35Q456.74 7.57 457.28 8.34L457.28 8.34L457.28 8.34Q457.80 9.08 457.79 10.01L457.79 10.01L457.79 10.01Q457.79 11.01 457.16 11.59L457.16 11.59L457.16 11.59Q456.56 12.13 455.61 12.28L455.61 12.28L455.61 12.28Q454.69 12.41 453.14 12.41L453.14 12.41L451.16 12.41L451.16 11.87L451.58 11.87L451.58 11.87Q451.94 11.87 452.05 11.80L452.05 11.80L452.05 11.80Q452.16 11.73 452.16 11.46L452.16 11.46L452.16 4.14L452.16 4.14Q452.16 3.81 452.01 3.72L452.01 3.72L452.01 3.72Q451.88 3.64 451.44 3.64L451.44 3.64ZM453.27 7.59L453.27 7.59L453.30 11.35L453.30 11.35Q453.30 11.63 453.47 11.71L453.47 11.71L453.47 11.71Q453.63 11.80 454.21 11.80L454.21 11.80L454.21 11.80Q456.46 11.80 456.46 9.91L456.46 9.91L456.46 9.91Q456.46 9.22 456.14 8.73L456.14 8.73L456.14 8.73Q455.83 8.24 455.30 8.02L455.30 8.02L455.30 8.02Q454.71 7.75 454.28 7.68L454.28 7.68L454.28 7.68Q453.80 7.59 453.27 7.59ZM453.30 4.01L453.30 7.19L454.67 7.19L454.67 7.19Q455.33 7.19 455.75 6.66L455.75 6.66L455.75 6.66Q456.15 6.15 456.16 5.54L456.16 5.54L456.16 5.54Q456.16 4.85 455.57 4.27L455.57 4.27L455.57 4.27Q454.99 3.69 453.71 3.69L453.71 3.69L453.71 3.69Q453.30 3.69 453.30 4.01L453.30 4.01ZM465.85 12.41L465.83 11.87L466.01 11.87L466.01 11.87Q466.40 11.87 466.53 11.73L466.53 11.73L466.53 11.73Q466.65 11.57 466.98 10.83L466.98 10.83L467.89 8.82L468.47 7.53L468.47 7.53Q468.73 6.97 468.77 6.86L468.77 6.86L468.77 6.86Q468.84 6.70 468.89 6.60L468.89 6.60L468.89 6.60Q468.95 6.51 468.96 6.45L468.96 6.45L469.05 6.21L470.48 2.74L470.78 2.74L470.78 2.74Q471.63 4.98 473.82 10.25L473.82 10.25L473.82 10.25Q474.27 11.34 474.46 11.64L474.46 11.64L474.46 11.64Q474.60 11.87 475.04 11.87L475.04 11.87L475.25 11.87L475.23 12.41L472.04 12.41L472.06 11.87L472.47 11.87L472.47 11.87Q473.09 11.87 473.09 11.70L473.09 11.70L473.09 11.70Q473.09 11.63 472.95 11.27L472.95 11.27L471.91 8.72L468.67 8.72L467.56 11.18L467.56 11.18Q467.42 11.50 467.42 11.63L467.42 11.63L467.42 11.63Q467.42 11.79 467.52 11.83L467.52 11.83L467.52 11.83Q467.61 11.87 468.00 11.87L468.00 11.87L468.57 11.87L468.57 12.41L465.85 12.41ZM470.35 4.79L468.93 8.10L471.67 8.10L470.35 4.79ZM482.99 3.64L482.98 3.08L485.15 3.08L490.89 10.48L490.89 4.14L490.89 4.14Q490.89 3.81 490.73 3.72L490.73 3.72L490.73 3.72Q490.58 3.64 490.12 3.64L490.12 3.64L489.63 3.64L489.66 3.08L492.64 3.08L492.64 3.64L492.32 3.64L492.32 3.64Q491.85 3.64 491.70 3.75L491.70 3.75L491.70 3.75Q491.55 3.86 491.55 4.25L491.55 4.25L491.55 12.32L491.55 12.47L491.55 12.47Q491.55 12.52 491.54 12.57L491.54 12.57L491.54 12.57Q491.52 12.61 491.49 12.64L491.49 12.64L491.49 12.64Q491.48 12.65 491.42 12.65L491.42 12.65L491.23 12.65L491.17 12.65L491.14 12.65L491.11 12.64L491.11 12.64Q491.09 12.64 491.07 12.63L491.07 12.63L491.07 12.63Q491.06 12.61 491.06 12.60L491.06 12.60L491.06 12.60Q491.06 12.58 491.05 12.57L491.05 12.57L491.05 12.57Q491.02 12.54 490.99 12.50L490.99 12.50L490.99 12.50Q490.98 12.48 490.96 12.45L490.96 12.45L490.96 12.45Q490.94 12.41 490.92 12.40L490.92 12.40L484.82 4.56L484.89 11.22L484.89 11.22Q484.89 11.67 485.05 11.77L485.05 11.77L485.05 11.77Q485.21 11.87 485.92 11.87L485.92 11.87L486.16 11.87L486.16 12.41L483.22 12.41L483.22 11.87L483.64 11.87L483.64 11.87Q484.02 11.87 484.13 11.76L484.13 11.76L484.13 11.76Q484.22 11.66 484.23 11.25L484.23 11.25L484.23 3.80L484.09 3.64L482.99 3.64ZM500.96 3.64L500.38 3.64L500.38 3.08L503.88 3.08L503.88 3.64L503.43 3.64L503.43 3.64Q503.03 3.64 502.93 3.73L502.93 3.73L502.93 3.73Q502.82 3.84 502.82 4.28L502.82 4.28L502.82 7.50L506.91 4.18L506.91 4.18Q507.25 3.89 507.25 3.77L507.25 3.77L507.25 3.77Q507.25 3.64 506.61 3.64L506.61 3.64L506.06 3.64L506.04 3.08L509.39 3.08L509.39 3.64L509.03 3.64L509.03 3.64Q508.60 3.64 508.39 3.76L508.39 3.76L508.39 3.76Q508.22 3.86 507.34 4.55L507.34 4.55L504.17 7.08L508.40 11.49L508.40 11.49Q508.76 11.87 509.00 11.87L509.00 11.87L509.82 11.87L509.79 12.41L507.59 12.41L503.33 7.74L502.82 8.16L502.82 11.22L502.82 11.22Q502.82 11.70 502.98 11.79L502.98 11.79L502.98 11.79Q503.15 11.87 503.92 11.87L503.92 11.87L504.23 11.87L504.23 12.41L500.64 12.41L500.63 11.87L501.01 11.87L501.01 11.87Q501.51 11.87 501.60 11.79L501.60 11.79L501.60 11.79Q501.68 11.70 501.68 11.25L501.68 11.25L501.68 4.14L501.68 4.14Q501.68 3.77 501.58 3.71L501.58 3.71L501.58 3.71Q501.47 3.64 500.96 3.64L500.96 3.64Z"></path></g></svg>