<svg data-v-423bf9ae="" xmlns="http://www.w3.org/2000/svg" viewBox="0 0 280.6810867989239 60" class="font"><!----><!----><!----><g data-v-423bf9ae="" id="89d32fbf-e1a1-4a95-a6f3-d7d44b6fcc3d" fill="black" transform="matrix(6.191950123131256,0,0,6.191950123131256,-6.315785322145416,-26.68730515322664)"><path d="M4.20 4.31L1.02 4.31L1.02 14L4.20 14C7.14 14 9.17 12.01 9.17 9.14C9.17 6.30 7.14 4.31 4.20 4.31ZM4.19 12.64L2.55 12.64L2.55 5.67L4.19 5.67C6.22 5.67 7.62 7.07 7.62 9.13C7.62 11.21 6.22 12.64 4.19 12.64ZM16.24 9.00C17.16 8.65 17.77 7.83 17.77 6.76C17.77 5.31 16.66 4.31 15.12 4.31L10.72 4.31L10.72 14L15.55 14C17.08 14 18.17 12.96 18.17 11.45C18.17 10.19 17.40 9.27 16.24 9.00ZM16.27 7.06C16.27 7.90 15.67 8.51 14.83 8.51L12.25 8.51L12.25 5.64L14.83 5.64C15.67 5.64 16.27 6.23 16.27 7.06ZM15.18 12.67L12.25 12.67L12.25 9.73L15.18 9.73C16.00 9.73 16.62 10.35 16.62 11.20C16.62 12.05 16.00 12.67 15.18 12.67ZM26.42 14L28.07 14L24.30 4.31L22.46 4.31L18.70 14L20.34 14L21.11 11.91L25.65 11.91ZM21.57 10.65L23.38 5.80L25.19 10.65ZM35.53 4.31L35.53 11.98L31.15 4.31L29.19 4.31L29.19 14L30.72 14L30.72 6.33L35.11 14L37.06 14L37.06 4.31ZM46.35 14L42.22 9.04L46.35 4.31L44.59 4.31L40.64 8.88L40.64 4.31L39.12 4.31L39.12 14L40.64 14L40.64 9.24L44.58 14Z"></path></g><!----><!----></svg>